# xmcd CD database file
#
# Track frame offsets:
#	150
#	18738
#	42826
#	59496
#	79676
#	99631
#	118051
#	136968
#	147133
#	162733
#	175983
#	189218
#	204621
#	227321
#	246398
#	262423
#	280276
#	298756
#	314708
#	332676
#
# Disc length: 4637 seconds
#
# Revision: 0
# Processed by: cddbd v1.4PL0 Copyright (c) Steve Scherf et al.
# Submitted via: CDex 1.50Beta2
#
DISCID=3a121b14
DTITLE=ORGY - ORGY
DYEAR=1900
DGENRE=Blues
TTITLE0=Social Enemies
TTITLE1=Stitches (Smack My Stitch Up Extended Mix)
TTITLE2=Platinum
TTITLE3=Fiend
TTITLE4=Blue Monday
TTITLE5=All The Same
TTITLE6=Revival
TTITLE7=Vapor Transmission
TTITLE8=Suckerfase
TTITLE9=The Odyssey
TTITLE10=Opticon
TTITLE11=finction (Dreams In Digital)
TTITLE12=Eva
TTITLE13=107
TTITLE14=Dramatica
TTITLE15=Eyes-Radio-Lies
TTITLE16=Saving Faces
TTITLE17=Re-Creation
TTITLE18=Chasing Sirens
TTITLE19=Dizzy
EXTD=
EXTT0=
EXTT1=
EXTT2=
EXTT3=
EXTT4=
EXTT5=
EXTT6=
EXTT7=
EXTT8=
EXTT9=
EXTT10=
EXTT11=
EXTT12=
EXTT13=
EXTT14=
EXTT15=
EXTT16=
EXTT17=
EXTT18=
EXTT19=
PLAYORDER=
